<?xml version="1.0" encoding="UTF-8" standalone="no"?>
<!-- Created with Inkscape (http://www.inkscape.org/) -->

<svg
   width="59.999985mm"
   height="60.000004mm"
   viewBox="0 0 59.999985 60.000004"
   version="1.1"
   id="svg1"
   xml:space="preserve"
   inkscape:version="1.3.2 (091e20e, 2023-11-25, custom)"
   sodipodi:docname="Discord.svg"
   xmlns:inkscape="http://www.inkscape.org/namespaces/inkscape"
   xmlns:sodipodi="http://sodipodi.sourceforge.net/DTD/sodipodi-0.dtd"
   xmlns="http://www.w3.org/2000/svg"
   xmlns:svg="http://www.w3.org/2000/svg"><sodipodi:namedview
     id="namedview1"
     pagecolor="#ffffff"
     bordercolor="#000000"
     borderopacity="0.25"
     inkscape:showpageshadow="2"
     inkscape:pageopacity="0.0"
     inkscape:pagecheckerboard="0"
     inkscape:deskcolor="#d1d1d1"
     inkscape:document-units="mm"
     inkscape:zoom="0.75811588"
     inkscape:cx="251.94038"
     inkscape:cy="619.29846"
     inkscape:window-width="1920"
     inkscape:window-height="1009"
     inkscape:window-x="-8"
     inkscape:window-y="-8"
     inkscape:window-maximized="1"
     inkscape:current-layer="layer1" /><defs
     id="defs1" /><g
     inkscape:label="Layer 1"
     inkscape:groupmode="layer"
     id="layer1"
     transform="translate(-508.63267,-110.71439)"><path
       id="path12"
       style="fill:#f9f5d7;fill-opacity:1;stroke-width:1.72792"
       d="m 514.5285,110.71438 c -3.26613,0 -5.89582,2.68264 -5.89582,6.01506 v 47.96943 c 0,3.33241 2.62969,6.01551 5.89582,6.01551 h 48.2088 c 3.26614,0 5.89538,-2.6831 5.89538,-6.01551 v -47.96943 c 0,-3.33242 -2.62924,-6.01506 -5.89538,-6.01506 z m 31.11008,11.29864 c 0.0705,0.007 0.14911,0.0254 0.23602,0.0537 l 8.96065,2.70177 c 0.39703,0.13113 0.64009,0.52525 0.82742,0.91682 4.51225,8.92607 6.37842,17.85219 6.90535,26.77825 0.005,0.39194 -0.15412,0.78787 -0.53482,1.15991 -2.98779,3.08631 -6.76743,4.96081 -11.26831,5.7314 -0.3497,0.0569 -0.57137,0.044 -0.70234,-0.20475 l -2.13972,-3.51396 c -0.2062,-0.29994 -0.0503,-0.56279 0.26741,-0.75043 l 3.2098,-1.46701 c 0.38039,-0.066 -0.0253,-1.2293 -0.88622,-0.92088 -7.89109,2.81021 -15.78191,2.88439 -23.67301,0.0338 -0.67396,-0.28489 -1.35102,0.70868 -1.03648,0.83612 l 3.32693,1.62034 c 0.30835,0.16488 0.40142,0.32982 0.2842,0.49471 l -2.2237,3.68444 c -0.16633,0.28017 -0.44011,0.28728 -0.71868,0.22188 -4.07932,-0.86974 -7.96105,-2.41223 -11.28777,-5.84144 -0.23625,-0.26776 -0.45376,-0.54641 -0.47294,-0.94073 -0.22348,-9.07309 2.06312,-18.05487 6.83286,-26.94602 0.20614,-0.42197 0.43292,-0.73711 1.0166,-0.91637 l 8.58273,-2.55747 c 0.37876,-0.14306 0.8162,-0.003 0.9693,0.38604 l 0.804,1.6889 c 0.12756,0.2896 0.38142,0.35483 0.66211,0.28952 3.17631,-0.44574 6.53887,-0.41574 10.07183,0.0483 0.44953,0.0566 0.52923,5.7e-4 0.73327,-0.45864 l 0.82742,-1.8093 c 0.0751,-0.25207 0.21445,-0.3389 0.42609,-0.31884 z m -14.96298,14.25117 a 4.3929329,4.9338965 0 0 0 -4.39258,4.93362 4.3929329,4.9338965 0 0 0 4.39258,4.93409 4.3929329,4.9338965 0 0 0 4.39302,-4.93409 4.3929329,4.9338965 0 0 0 -4.39302,-4.93362 z m 15.98311,0 a 4.3929329,4.9338965 0 0 0 -4.39302,4.93362 4.3929329,4.9338965 0 0 0 4.39302,4.93409 4.3929329,4.9338965 0 0 0 4.39303,-4.93409 4.3929329,4.9338965 0 0 0 -4.39303,-4.93362 z"
       inkscape:export-filename="Discord_LM_TP.svg"
       inkscape:export-xdpi="96"
       inkscape:export-ydpi="96" /></g></svg>
