<?xml version="1.0" encoding="UTF-8" standalone="no"?>
<!-- Created with Inkscape (http://www.inkscape.org/) -->

<svg
   width="59.999985mm"
   height="60.000004mm"
   viewBox="0 0 59.999985 60.000004"
   version="1.1"
   id="svg1"
   xml:space="preserve"
   inkscape:version="1.3.2 (091e20e, 2023-11-25, custom)"
   sodipodi:docname="Github.svg"
   xmlns:inkscape="http://www.inkscape.org/namespaces/inkscape"
   xmlns:sodipodi="http://sodipodi.sourceforge.net/DTD/sodipodi-0.dtd"
   xmlns="http://www.w3.org/2000/svg"
   xmlns:svg="http://www.w3.org/2000/svg"><sodipodi:namedview
     id="namedview1"
     pagecolor="#ffffff"
     bordercolor="#000000"
     borderopacity="0.25"
     inkscape:showpageshadow="2"
     inkscape:pageopacity="0.0"
     inkscape:pagecheckerboard="0"
     inkscape:deskcolor="#d1d1d1"
     inkscape:document-units="mm"
     inkscape:zoom="0.75811588"
     inkscape:cx="171.47774"
     inkscape:cy="529.60241"
     inkscape:window-width="1920"
     inkscape:window-height="1009"
     inkscape:window-x="-8"
     inkscape:window-y="-8"
     inkscape:window-maximized="1"
     inkscape:current-layer="layer1" /><defs
     id="defs1" /><g
     inkscape:label="Layer 1"
     inkscape:groupmode="layer"
     id="layer1"
     transform="translate(-113.07527,-201.4058)"><path
       id="rect4"
       style="fill:#f9f5d7;stroke-width:0.703496"
       d="m 118.06293,201.40579 c -2.76315,0 -4.98766,2.22452 -4.98766,4.98766 v 50.02468 c 0,2.76315 2.22451,4.98766 4.98766,4.98766 h 50.02467 c 2.76315,0 4.98766,-2.22451 4.98766,-4.98766 v -50.02468 c 0,-2.76314 -2.22451,-4.98766 -4.98766,-4.98766 z m 25.2131,9.2839 c 7.01339,0.0872 14.00227,3.4559 17.26129,9.47303 6.60407,12.19829 4.8143,24.33361 -10.70241,31.88437 -0.42943,0.24663 -1.32102,0.043 -1.32511,-0.72825 l -0.11899,-7.5809 c -0.004,-0.22855 -0.14769,-0.44095 -0.25424,-0.67089 l -0.76352,-1.38828 c -0.12011,-0.24341 0.0404,-0.35446 0.2775,-0.39338 7.97432,-1.68831 10.70195,-6.65572 7.5092,-15.32343 -0.2197,-0.51941 -0.554,-1.10846 -0.40074,-1.69331 0.35079,-1.41781 0.16555,-2.8354 -0.31084,-4.25321 -0.12585,-0.4199 -0.47151,-0.48714 -0.77708,-0.44183 -1.86091,0.2109 -3.52387,0.89902 -5.01401,2.00414 -0.16965,0.14081 -0.33095,0.13116 -0.50927,0.0771 -3.68451,-1.01171 -7.0169,-1.05019 -9.95983,-0.0116 -0.20058,0.0587 -0.40466,0.0502 -0.57825,-0.081 -1.40763,-1.06137 -2.84553,-1.69952 -4.31484,-1.89716 -0.66249,-0.10654 -1.30225,-0.12859 -1.46928,0.60151 -0.28204,1.26655 -0.40343,2.64803 -0.25425,4.22259 0.0607,0.44712 0.1106,0.75914 -0.0349,1.05265 -3.86517,7.24268 -1.43886,14.52394 7.29682,15.79781 0.23673,0.0314 0.21597,0.22458 0.16355,0.3275 l -0.998,2.09367 c -0.14049,0.31623 -0.29712,0.4756 -0.65461,0.63019 -2.84199,1.39566 -4.73026,-0.51387 -5.97907,-2.47039 -1.05585,-1.44769 -2.15261,-1.93854 -3.64821,-1.42316 -0.19283,0.0674 -0.45254,0.17575 0,0.42516 1.242,0.75002 2.11387,1.71454 2.58471,2.91183 1.1243,2.58002 3.42781,3.72602 7.30457,3.41103 0.0807,-3.7e-4 0.18671,0.0311 0.18797,0.13914 l -0.0163,3.77068 c -0.0183,0.65086 -0.75612,1.1091 -1.36581,0.85072 -16.10804,-7.53393 -18.73975,-22.56426 -7.8022,-35.26749 3.74134,-4.19955 9.21124,-6.1167 14.6661,-6.04883 z" /></g></svg>
