<?xml version="1.0" encoding="UTF-8" standalone="no"?>
<!-- Created with Inkscape (http://www.inkscape.org/) -->

<svg
   width="59.999607mm"
   height="60.000004mm"
   viewBox="0 0 59.999607 60.000004"
   version="1.1"
   id="svg1"
   xml:space="preserve"
   inkscape:version="1.3.2 (091e20e, 2023-11-25, custom)"
   sodipodi:docname="Github.svg"
   xmlns:inkscape="http://www.inkscape.org/namespaces/inkscape"
   xmlns:sodipodi="http://sodipodi.sourceforge.net/DTD/sodipodi-0.dtd"
   xmlns="http://www.w3.org/2000/svg"
   xmlns:svg="http://www.w3.org/2000/svg"><sodipodi:namedview
     id="namedview1"
     pagecolor="#ffffff"
     bordercolor="#000000"
     borderopacity="0.25"
     inkscape:showpageshadow="2"
     inkscape:pageopacity="0.0"
     inkscape:pagecheckerboard="0"
     inkscape:deskcolor="#d1d1d1"
     inkscape:document-units="mm"
     inkscape:zoom="0.75811588"
     inkscape:cx="171.47774"
     inkscape:cy="529.60241"
     inkscape:window-width="1920"
     inkscape:window-height="1009"
     inkscape:window-x="-8"
     inkscape:window-y="-8"
     inkscape:window-maximized="1"
     inkscape:current-layer="layer1" /><defs
     id="defs1" /><g
     inkscape:label="Layer 1"
     inkscape:groupmode="layer"
     id="layer1"
     transform="translate(-16.053284,-201.4058)"><path
       id="rect1"
       style="fill:#222324;stroke-width:0.703496"
       d="m 21.040946,201.40579 c -2.763145,0 -4.987662,2.22452 -4.987662,4.98766 v 50.02468 c 0,2.76315 2.224517,4.98766 4.987662,4.98766 h 50.024285 c 2.763143,0 4.987662,-2.22451 4.987662,-4.98766 v -50.02468 c 0,-2.76314 -2.224519,-4.98766 -4.987662,-4.98766 z m 25.21271,9.2839 c 7.013397,0.0872 14.002272,3.4559 17.261287,9.47303 6.604072,12.19829 4.814299,24.33361 -10.702408,31.88437 -0.429434,0.24663 -1.321021,0.043 -1.325108,-0.72825 l -0.118597,-7.5809 c -0.0045,-0.22855 -0.148091,-0.44095 -0.254635,-0.67089 l -0.763517,-1.38828 c -0.120112,-0.24341 0.04045,-0.35446 0.277502,-0.39338 7.974316,-1.68831 10.701947,-6.65571 7.509204,-15.32343 -0.219704,-0.51941 -0.554011,-1.10846 -0.400749,-1.69331 0.350788,-1.41781 0.165558,-2.8354 -0.310832,-4.25321 -0.125858,-0.4199 -0.471511,-0.48714 -0.777082,-0.44183 -1.860914,0.2109 -3.523879,0.89902 -5.014017,2.00414 -0.16965,0.14081 -0.330556,0.13116 -0.508882,0.0771 -3.684508,-1.01171 -7.016895,-1.05019 -9.959821,-0.0116 -0.200579,0.0587 -0.405058,0.0502 -0.578645,-0.081 -1.407623,-1.06137 -2.845526,-1.69952 -4.314837,-1.89716 -0.662487,-0.10654 -1.301865,-0.12859 -1.468897,0.60151 -0.282037,1.26655 -0.403809,2.64803 -0.254635,4.22259 0.06068,0.44712 0.11099,0.75914 -0.03449,1.05265 -3.865167,7.24268 -1.439247,14.52394 7.296428,15.79781 0.236736,0.0314 0.215979,0.22458 0.163555,0.3275 l -0.997998,2.09367 c -0.140489,0.31623 -0.296735,0.4756 -0.654221,0.63019 -2.841992,1.39566 -4.730647,-0.51387 -5.979458,-2.47039 -1.055853,-1.44769 -2.152608,-1.93854 -3.648214,-1.42316 -0.192824,0.0674 -0.452533,0.17575 0,0.42516 1.242002,0.75002 2.113876,1.71454 2.584717,2.91183 1.124297,2.58002 3.427811,3.72602 7.304566,3.41103 0.08068,-3.7e-4 0.1871,0.0311 0.18836,0.13914 l -0.01666,3.77068 c -0.0183,0.65086 -0.756117,1.1091 -1.365804,0.85072 -16.108045,-7.53393 -18.739754,-22.56426 -7.802208,-35.26749 3.741346,-4.19955 9.211242,-6.1167 14.666105,-6.04883 z" /></g></svg>
