<?xml version="1.0" encoding="UTF-8" standalone="no"?>
<!-- Created with Inkscape (http://www.inkscape.org/) -->

<svg
   width="83.035049mm"
   height="58.430317mm"
   viewBox="0 0 83.035049 58.430317"
   version="1.1"
   id="svg1"
   xml:space="preserve"
   inkscape:version="1.3.2 (091e20e, 2023-11-25, custom)"
   sodipodi:docname="CacheVector_Final.svg"
   xmlns:inkscape="http://www.inkscape.org/namespaces/inkscape"
   xmlns:sodipodi="http://sodipodi.sourceforge.net/DTD/sodipodi-0.dtd"
   xmlns="http://www.w3.org/2000/svg"
   xmlns:svg="http://www.w3.org/2000/svg"><sodipodi:namedview
     id="namedview1"
     pagecolor="#ffffff"
     bordercolor="#000000"
     borderopacity="0.25"
     inkscape:showpageshadow="2"
     inkscape:pageopacity="0.0"
     inkscape:pagecheckerboard="0"
     inkscape:deskcolor="#d1d1d1"
     inkscape:document-units="mm"
     inkscape:zoom="1.4142136"
     inkscape:cx="2815.6992"
     inkscape:cy="669.27657"
     inkscape:window-width="1920"
     inkscape:window-height="1009"
     inkscape:window-x="-8"
     inkscape:window-y="-8"
     inkscape:window-maximized="1"
     inkscape:current-layer="layer1"
     showgrid="false" /><defs
     id="defs1" /><g
     inkscape:label="Layer 1"
     inkscape:groupmode="layer"
     id="layer1"
     transform="translate(-638.58729,-281.05083)"><g
       id="g35"
       style="fill:#427b58;fill-opacity:1"
       transform="matrix(1.4285714,0,0,1.4285714,-51.668846,232.46778)"><g
         id="g34"
         style="fill:#427b58;fill-opacity:1"><path
           style="fill:#427b58;fill-opacity:1;stroke:none;stroke-width:2;stroke-linecap:round;stroke-linejoin:round;stroke-dasharray:none"
           d="m 483.17934,34.008143 18.24117,0.327406 c 1.12002,4.34964 3.15504,8.219993 6.12714,11.599497 -5.21118,1.047365 -8.82537,4.725052 -11.03823,10.710825 -1.38354,-10.650724 -5.94983,-18.071895 -13.33008,-22.637728 z"
           id="path14"
           sodipodi:nodetypes="ccccc" /><path
           style="fill:#427b58;fill-opacity:1;stroke:none;stroke-width:2;stroke-linecap:round;stroke-linejoin:round;stroke-dasharray:none"
           d="m 523.99813,38.328867 c 5.76912,0.591246 12.15969,-0.184714 17.30571,1.777341 L 526.99155,57.41191 c -25.69653,-7.861104 -26.58349,2.916455 -28.39069,13.002663 -4.42523,-16.420062 4.07723,-27.35609 20.86039,-23.292541 z"
           id="path15"
           sodipodi:nodetypes="cccccc" /><path
           style="fill:#427b58;fill-opacity:1;stroke:none;stroke-width:2;stroke-linecap:round;stroke-linejoin:round;stroke-dasharray:none"
           d="m 510.50869,57.480728 2.57969,3.935678 10.88099,1.02526 c 0.19915,8.079056 -11.8387,14.986102 -17.39635,11.575521 -5.80079,-3.559789 -2.80883,-15.011742 3.93567,-16.536459 z"
           id="path25"
           sodipodi:nodetypes="cccsc" /></g></g></g></svg>
