<?xml version="1.0" encoding="UTF-8" standalone="no"?>
<!-- Created with Inkscape (http://www.inkscape.org/) -->

<svg
   width="58.502728mm"
   height="45.416714mm"
   viewBox="0 0 58.502728 45.416714"
   version="1.1"
   id="svg1"
   xml:space="preserve"
   xmlns:inkscape="http://www.inkscape.org/namespaces/inkscape"
   xmlns:sodipodi="http://sodipodi.sourceforge.net/DTD/sodipodi-0.dtd"
   xmlns="http://www.w3.org/2000/svg"
   xmlns:svg="http://www.w3.org/2000/svg"><sodipodi:namedview
     id="namedview1"
     pagecolor="#ffffff"
     bordercolor="#000000"
     borderopacity="0.25"
     inkscape:showpageshadow="2"
     inkscape:pageopacity="0.0"
     inkscape:pagecheckerboard="0"
     inkscape:deskcolor="#d1d1d1"
     inkscape:document-units="mm" /><defs
     id="defs1" /><g
     inkscape:label="Layer 1"
     inkscape:groupmode="layer"
     id="layer1"
     transform="translate(-126.33586,-50.505217)"><g
       id="g17"
       transform="translate(97.478534)"><path
         style="fill:none;stroke:#222324;stroke-width:2.53458;stroke-dasharray:none;stroke-opacity:1"
         d="m 51.427016,54.360969 c 0.149135,0.33185 0.445832,0.406549 0.773997,0.331713 3.713601,-0.510768 7.645265,-0.476379 11.775842,0.05528 0.52557,0.06485 0.618374,10e-4 0.856928,-0.525213 l 0.9675,-2.073213 c 0.116971,-0.385141 0.36745,-0.433797 0.774009,-0.304073 l 10.47663,3.095999 c 0.464196,0.150257 0.748487,0.601724 0.9675,1.050429 5.27551,10.228319 7.457161,20.456637 8.073228,30.684956 0.0063,0.449111 -0.180373,0.902837 -0.625483,1.329157 -3.493194,3.536575 -7.912067,5.68461 -13.174309,6.567603 -0.408853,0.06516 -0.667836,0.05049 -0.82095,-0.234555 l -2.501946,-4.026567 c -0.241076,-0.343696 -0.05867,-0.64503 0.312742,-0.860045 l 3.752925,-1.680995 c 0.44473,-0.07559 -0.0294,-1.408911 -1.035971,-1.055498 -9.225917,3.220212 -18.451833,3.305559 -27.67775,0.03908 -0.787975,-0.326483 -1.579613,0.811742 -1.211871,0.957778 l 3.889729,1.856912 c 0.360506,0.188949 0.469366,0.377898 0.332296,0.566847 l -2.599679,4.222029 c -0.194466,0.321054 -0.514786,0.329038 -0.840492,0.254103 -4.769354,-0.996623 -9.30753,-2.763823 -13.197006,-6.693327 -0.276205,-0.306835 -0.530436,-0.626222 -0.552867,-1.078071 -0.261277,-10.396787 2.412209,-20.688761 7.988789,-30.877052 0.241013,-0.483557 0.506218,-0.845019 1.188641,-1.050429 l 10.034346,-2.930142 c 0.442829,-0.16395 0.954358,-0.0028 1.133362,0.442287 z"
         id="path15"
         sodipodi:nodetypes="ccccccccccccccccccccccccccccc" /><g
         id="g16"
         transform="matrix(1.2672893,0,0,1.2672893,-16.629665,-19.014991)"><ellipse
           style="fill:#222324;fill-opacity:1;stroke:none;stroke-width:2.30733;stroke-dasharray:none"
           id="ellipse15"
           cx="51.634109"
           cy="73.213577"
           rx="4.0527544"
           ry="4.4612584" /><ellipse
           style="fill:#222324;fill-opacity:1;stroke:none;stroke-width:2.30733;stroke-dasharray:none"
           id="ellipse16"
           cx="66.379272"
           cy="73.213577"
           rx="4.0527544"
           ry="4.4612584" /></g></g></g></svg>
