<?xml version="1.0" encoding="UTF-8" standalone="no"?>
<!-- Created with Inkscape (http://www.inkscape.org/) -->

<svg
   width="58.502708mm"
   height="45.416721mm"
   viewBox="0 0 58.502708 45.416721"
   version="1.1"
   id="svg1"
   xml:space="preserve"
   xmlns:inkscape="http://www.inkscape.org/namespaces/inkscape"
   xmlns:sodipodi="http://sodipodi.sourceforge.net/DTD/sodipodi-0.dtd"
   xmlns="http://www.w3.org/2000/svg"
   xmlns:svg="http://www.w3.org/2000/svg"><sodipodi:namedview
     id="namedview1"
     pagecolor="#ffffff"
     bordercolor="#000000"
     borderopacity="0.25"
     inkscape:showpageshadow="2"
     inkscape:pageopacity="0.0"
     inkscape:pagecheckerboard="0"
     inkscape:deskcolor="#d1d1d1"
     inkscape:document-units="mm" /><defs
     id="defs1" /><g
     inkscape:label="Layer 1"
     inkscape:groupmode="layer"
     id="layer1"
     transform="translate(-126.33586,-135.64473)"><g
       id="g23"><path
         style="fill:none;stroke:#f9f5d7;stroke-width:2.53458;stroke-dasharray:none;stroke-opacity:1"
         d="m 148.90555,139.50045 c 0.14913,0.33185 0.44583,0.40655 0.774,0.33171 3.7136,-0.51077 7.64526,-0.47638 11.77584,0.0553 0.52557,0.0649 0.61837,0.001 0.85693,-0.52521 l 0.9675,-2.07322 c 0.11697,-0.38514 0.36745,-0.43379 0.77401,-0.30407 l 10.47663,3.096 c 0.46419,0.15026 0.74848,0.60172 0.9675,1.05043 5.27551,10.22832 7.45716,20.45664 8.07322,30.68496 0.006,0.44911 -0.18037,0.90283 -0.62548,1.32915 -3.49319,3.53658 -7.91207,5.68461 -13.17431,6.56761 -0.40885,0.0652 -0.66783,0.0505 -0.82095,-0.23456 l -2.50194,-4.02657 c -0.24108,-0.34369 -0.0587,-0.64503 0.31274,-0.86004 l 3.75292,-1.681 c 0.44473,-0.0756 -0.0294,-1.40891 -1.03597,-1.05549 -9.22592,3.22021 -18.45183,3.30555 -27.67775,0.0391 -0.78797,-0.32649 -1.57961,0.81174 -1.21187,0.95777 l 3.88973,1.85692 c 0.36051,0.18894 0.46937,0.37789 0.3323,0.56684 l -2.59968,4.22203 c -0.19447,0.32106 -0.51479,0.32904 -0.8405,0.2541 -4.76935,-0.99662 -9.30753,-2.76382 -13.197,-6.69332 -0.27621,-0.30684 -0.53044,-0.62622 -0.55287,-1.07807 -0.26128,-10.39679 2.41221,-20.68876 7.98879,-30.87706 0.24101,-0.48355 0.50622,-0.84501 1.18864,-1.05042 l 10.03435,-2.93015 c 0.44283,-0.16395 0.95436,-0.003 1.13336,0.44229 z"
         id="path21"
         sodipodi:nodetypes="ccccccccccccccccccccccccccccc" /><g
         id="g22"
         transform="matrix(1.2672893,0,0,1.2672893,80.848869,66.124488)"
         style="fill:#f9f5d7;fill-opacity:1"><ellipse
           style="fill:#f9f5d7;fill-opacity:1;stroke:none;stroke-width:2.30733;stroke-dasharray:none"
           id="ellipse21"
           cx="51.634109"
           cy="73.213577"
           rx="4.0527544"
           ry="4.4612584" /><ellipse
           style="fill:#f9f5d7;fill-opacity:1;stroke:none;stroke-width:2.30733;stroke-dasharray:none"
           id="ellipse22"
           cx="66.379272"
           cy="73.213577"
           rx="4.0527544"
           ry="4.4612584" /></g></g></g></svg>
