<?xml version="1.0" encoding="UTF-8" standalone="no"?>
<!-- Created with Inkscape (http://www.inkscape.org/) -->

<svg
   width="39.110088mm"
   height="38.577007mm"
   viewBox="0 0 39.110088 38.577007"
   version="1.1"
   id="svg1"
   xmlns:inkscape="http://www.inkscape.org/namespaces/inkscape"
   xmlns:sodipodi="http://sodipodi.sourceforge.net/DTD/sodipodi-0.dtd"
   xmlns="http://www.w3.org/2000/svg"
   xmlns:svg="http://www.w3.org/2000/svg">
  <sodipodi:namedview
     id="namedview1"
     pagecolor="#ffffff"
     bordercolor="#000000"
     borderopacity="0.25"
     inkscape:showpageshadow="2"
     inkscape:pageopacity="0.0"
     inkscape:pagecheckerboard="0"
     inkscape:deskcolor="#d1d1d1"
     inkscape:document-units="mm" />
  <defs
     id="defs1" />
  <g
     inkscape:label="Layer 1"
     inkscape:groupmode="layer"
     id="layer1"
     transform="translate(-40.42368,-118.29316)">
    <path
       style="fill:none;stroke:#f9f5d7;stroke-width:2.5;stroke-dasharray:none;stroke-opacity:1"
       d="m 55.22979,151.34388 c 0.07006,-3.2e-4 0.162259,0.027 0.163353,0.12074 l -0.0142,3.27409 c -0.01589,0.56512 -0.656687,0.96297 -1.186059,0.73862 -13.986094,-6.54146 -16.270945,-19.5918 -6.774227,-30.62159 7.425119,-8.3345 22.690744,-6.31496 27.721318,2.97301 5.734102,10.59138 4.180188,21.12801 -9.292468,27.68409 -0.372863,0.21414 -1.146994,0.0376 -1.150543,-0.63209 l -0.103143,-6.58243 c -0.0039,-0.19844 -0.128455,-0.3829 -0.220964,-0.58255 L 63.70995,146.5105 c -0.104289,-0.21134 0.03523,-0.3077 0.241054,-0.3415 6.923841,-1.4659 9.292162,-5.779 6.520007,-13.3049 -0.190762,-0.45099 -0.481079,-0.96234 -0.348007,-1.47014 0.304578,-1.23105 0.143752,-2.46208 -0.269882,-3.69312 -0.109278,-0.36459 -0.409389,-0.42286 -0.674706,-0.38352 -1.615771,0.18312 -3.059776,0.78049 -4.353615,1.74003 -0.147301,0.12226 -0.287068,0.11398 -0.441903,0.0671 -3.199139,-0.87843 -6.092599,-0.91178 -8.647847,-0.01 -0.174156,0.0509 -0.351478,0.0436 -0.502197,-0.0703 -1.222194,-0.92155 -2.470638,-1.4756 -3.746393,-1.64721 -0.575216,-0.0925 -1.130557,-0.11163 -1.275586,0.52229 -0.244882,1.09971 -0.350487,2.2989 -0.220964,3.66604 0.05268,0.38822 0.09617,0.65916 -0.03015,0.914 -3.356,6.28859 -1.249564,12.61089 6.335339,13.71695 0.205551,0.0272 0.187565,0.19472 0.142046,0.28408 l -0.866464,1.81815 c -0.121982,0.27458 -0.257777,0.41265 -0.56817,0.54687 -2.46761,1.21181 -4.107371,-0.44607 -5.191674,-2.14485 -0.916763,-1.25698 -1.86897,-1.68326 -3.167556,-1.23577 -0.167423,0.0585 -0.39292,0.15276 0,0.36932 1.07839,0.65121 1.83546,1.48878 2.244275,2.52835 0.976191,2.24015 2.976149,3.2351 6.34221,2.9616 z"
       id="path3"
       sodipodi:nodetypes="ccccccccccccccccccccccccccccccccc"
       inkscape:export-filename="Github_DM_WOB_New.png"
       inkscape:export-xdpi="96"
       inkscape:export-ydpi="96" />
  </g>
</svg>
