<?xml version="1.0" encoding="UTF-8" standalone="no"?>
<!-- Created with Inkscape (http://www.inkscape.org/) -->

<svg
   width="58.2211mm"
   height="57.341801mm"
   viewBox="0 0 58.2211 57.341801"
   version="1.1"
   id="svg1"
   xml:space="preserve"
   xmlns:inkscape="http://www.inkscape.org/namespaces/inkscape"
   xmlns:sodipodi="http://sodipodi.sourceforge.net/DTD/sodipodi-0.dtd"
   xmlns="http://www.w3.org/2000/svg"
   xmlns:svg="http://www.w3.org/2000/svg"><sodipodi:namedview
     id="namedview1"
     pagecolor="#ffffff"
     bordercolor="#000000"
     borderopacity="0.25"
     inkscape:showpageshadow="2"
     inkscape:pageopacity="0.0"
     inkscape:pagecheckerboard="0"
     inkscape:deskcolor="#d1d1d1"
     inkscape:document-units="mm" /><defs
     id="defs1" /><g
     inkscape:label="Layer 1"
     inkscape:groupmode="layer"
     id="layer1"
     transform="translate(-117.85743,-169.06858)"><path
       style="fill:none;stroke:#222324;stroke-width:2;stroke-dasharray:none;stroke-opacity:1"
       d="m 139.67574,218.85926 c 0.10758,-4.9e-4 0.24917,0.0414 0.25085,0.18541 l -0.0218,5.0278 c -0.0244,0.86781 -1.00843,1.47876 -1.82135,1.13425 -21.47749,-10.04528 -24.98618,-30.0858 -10.40272,-47.02351 11.40225,-12.79871 34.84463,-9.69744 42.56974,4.56545 8.80547,16.26446 6.41923,32.44486 -14.26981,42.51259 -0.57258,0.32884 -1.76136,0.0577 -1.76681,-0.97066 l -0.15839,-10.10819 c -0.006,-0.30473 -0.19726,-0.588 -0.33932,-0.89458 l -1.01798,-1.85086 c -0.16015,-0.32454 0.0541,-0.47251 0.37017,-0.52441 10.63247,-2.25109 14.26934,-8.87443 10.01233,-20.43144 -0.29294,-0.69255 -0.73876,-1.4778 -0.53441,-2.2576 0.46772,-1.89043 0.22075,-3.78085 -0.41444,-5.67127 -0.16781,-0.55987 -0.62867,-0.64935 -1.0361,-0.58894 -2.48123,0.2812 -4.69869,1.19854 -6.68555,2.67204 -0.2262,0.18775 -0.44083,0.17504 -0.6786,0.10299 -4.9127,-1.34895 -9.35599,-1.40016 -13.27991,-0.0154 -0.26744,0.0782 -0.53974,0.067 -0.77119,-0.10796 -1.87684,-1.41517 -3.79399,-2.26598 -5.75308,-2.52951 -0.88332,-0.14206 -1.73612,-0.17142 -1.95883,0.80204 -0.37605,1.68875 -0.53822,3.53027 -0.33932,5.62969 0.0809,0.59616 0.14768,1.01222 -0.0463,1.40357 -5.15358,9.65695 -1.91887,19.36569 9.72875,21.06419 0.31565,0.0418 0.28803,0.29902 0.21813,0.43625 l -1.33057,2.79201 c -0.18732,0.42165 -0.39585,0.63367 -0.8725,0.83979 -3.78934,1.86089 -6.30741,-0.685 -7.9725,-3.2937 -1.40781,-1.93027 -2.87005,-2.58488 -4.8642,-1.8977 -0.2571,0.0898 -0.60338,0.23458 0,0.56713 1.65601,1.00003 2.81859,2.28624 3.44638,3.88264 1.49907,3.44004 4.57027,4.96791 9.7393,4.54792 z"
       id="path5"
       sodipodi:nodetypes="ccccccccccccccccccccccccccccccccc" /></g></svg>
