<?xml version="1.0" encoding="UTF-8" standalone="no"?>
<!-- Created with Inkscape (http://www.inkscape.org/) -->

<svg
   width="60.000004mm"
   height="60.000004mm"
   viewBox="0 0 60.000004 60.000004"
   version="1.1"
   id="svg1"
   inkscape:version="1.3.2 (091e20e, 2023-11-25, custom)"
   sodipodi:docname="All.svg"
   xmlns:inkscape="http://www.inkscape.org/namespaces/inkscape"
   xmlns:sodipodi="http://sodipodi.sourceforge.net/DTD/sodipodi-0.dtd"
   xmlns="http://www.w3.org/2000/svg"
   xmlns:svg="http://www.w3.org/2000/svg">
  <sodipodi:namedview
     id="namedview1"
     pagecolor="#ffffff"
     bordercolor="#000000"
     borderopacity="0.25"
     inkscape:showpageshadow="2"
     inkscape:pageopacity="0.0"
     inkscape:pagecheckerboard="0"
     inkscape:deskcolor="#d1d1d1"
     inkscape:document-units="mm"
     inkscape:zoom="0.26803444"
     inkscape:cx="369.35552"
     inkscape:cy="673.42092"
     inkscape:window-width="1920"
     inkscape:window-height="1009"
     inkscape:window-x="-8"
     inkscape:window-y="-8"
     inkscape:window-maximized="1"
     inkscape:current-layer="layer1"
     showgrid="false" />
  <defs
     id="defs1" />
  <g
     inkscape:label="Layer 1"
     inkscape:groupmode="layer"
     id="layer1"
     transform="translate(-130.92353,-14.097848)">
    <path
       id="path50"
       style="fill:#f9f5d7;fill-opacity:1;stroke-width:10.6972;stroke-linecap:round;stroke-linejoin:round"
       d="m 139.0584,14.097847 c -4.50671,0 -8.13487,3.628166 -8.13487,8.134867 v 43.730267 c 0,4.506702 3.62816,8.134867 8.13487,8.134867 h 43.73026 c 4.5067,0 8.13487,-3.628165 8.13487,-8.134867 V 22.232714 c 0,-4.506701 -3.62817,-8.134867 -8.13487,-8.134867 z m 36.32402,10.295022 c 2.40884,0.103363 3.31952,0.141439 3.31952,0.141439 -3.45911,3.918202 -8.76551,10.136051 -14.13476,16.448674 l 15.53469,22.580363 c 0,0 -9.54812,0.170434 -11.351,0.239481 L 158.21745,48.446552 c -7.04749,8.299969 -12.93096,15.223483 -13.04076,15.123758 l -3.3222,-0.04661 14.83124,-17.309628 -14.94107,-21.781021 c 0.89204,-0.01923 3.324,-0.02234 5.74541,-0.02089 2.42141,0.0015 4.83209,0.0075 5.68112,0.0064 l 9.88195,14.364063 z m -23.59133,2.697514 5.4e-4,0.001 h 0.007 c 0.006,0 -0.007,-0.001 -0.007,-0.001 z m 5.4e-4,0.001 -4.88821,0.01072 c -0.003,1.04e-4 -0.001,0.001 -0.003,-0.001 l 11.63173,16.958175 1.52581,2.224445 10.05501,14.660333 0.006,0.0027 4.93749,-0.01179 c 0.0695,-1.56e-4 0.0684,0.0034 0.0391,-0.03965 l -12.2954,-17.835224 -1.52154,-2.206765 z"
       inkscape:export-filename="X_LM_TP.png"
       inkscape:export-xdpi="96"
       inkscape:export-ydpi="96" />
  </g>
</svg>
