<?xml version="1.0" encoding="UTF-8" standalone="no"?>
<!-- Created with Inkscape (http://www.inkscape.org/) -->

<svg
   width="36.997646mm"
   height="38.013mm"
   viewBox="0 0 36.997646 38.013"
   version="1.1"
   id="svg1"
   xml:space="preserve"
   inkscape:version="1.3.2 (091e20e, 2023-11-25, custom)"
   sodipodi:docname="X_DarkMode.svg"
   xmlns:inkscape="http://www.inkscape.org/namespaces/inkscape"
   xmlns:sodipodi="http://sodipodi.sourceforge.net/DTD/sodipodi-0.dtd"
   xmlns="http://www.w3.org/2000/svg"
   xmlns:svg="http://www.w3.org/2000/svg"><sodipodi:namedview
     id="namedview1"
     pagecolor="#ffffff"
     bordercolor="#000000"
     borderopacity="0.25"
     inkscape:showpageshadow="2"
     inkscape:pageopacity="0.0"
     inkscape:pagecheckerboard="0"
     inkscape:deskcolor="#d1d1d1"
     inkscape:document-units="mm"
     inkscape:zoom="1.4142136"
     inkscape:cx="378.30213"
     inkscape:cy="906.86444"
     inkscape:window-width="1920"
     inkscape:window-height="1009"
     inkscape:window-x="-8"
     inkscape:window-y="-8"
     inkscape:window-maximized="1"
     inkscape:current-layer="g25"
     showgrid="false" /><defs
     id="defs1" /><g
     inkscape:label="Layer 1"
     inkscape:groupmode="layer"
     id="layer1"
     transform="translate(-170.42781,-225.15103)"><g
       id="g23"><path
         id="path11"
         style="fill:#f9f5d7;fill-opacity:1;stroke:none;stroke-width:0.409408;stroke-linecap:round;stroke-linejoin:round;stroke-dasharray:none;stroke-opacity:1"
         d="m 202.87338,225.15103 c 2.32348,0.0997 3.20175,0.13625 3.20175,0.13625 -9.24954,10.47713 -32.12278,37.84745 -32.33702,37.65287 l -3.20414,-0.0452 z"
         sodipodi:nodetypes="ccccc" /><g
         id="g22"><path
           id="path12"
           style="fill:#f9f5d7;fill-opacity:1;stroke:none;stroke-width:0.476251;stroke-linecap:round;stroke-linejoin:round;stroke-dasharray:none;stroke-opacity:1"
           d="m 196.47688,263.16403 c 1.73899,-0.0666 10.94858,-0.23052 10.94858,-0.23052 l -25.9759,-37.75756 c -1.63787,0.002 -9.3009,-0.0232 -11.02175,0.014 z"
           sodipodi:nodetypes="ccccc" /><path
           id="path13"
           style="fill:#222324;fill-opacity:1;stroke:none;stroke-width:0.409408;stroke-linecap:round;stroke-linejoin:round;stroke-dasharray:none;stroke-opacity:1"
           d="m 197.79668,260.40932 4.76257,-0.0111 c 0.067,-1.5e-4 0.0661,0.003 0.0378,-0.0385 l -22.47871,-32.60676 c 0,0 0.0127,0.001 0.007,0.001 l -4.72163,0.0105 c -0.003,4e-5 -10e-4,9.7e-4 -0.003,-0.001 l 22.38989,32.64331 z"
           sodipodi:nodetypes="csscscccc" /></g></g></g></svg>
